#!OML:ASF G:\JayActor3\Patient Classification 1\Patient 1\Session 5\male.ASF
:FULLY-SPECIFIED
:DEGREES
756
root 19.342 17.5879 -5.77817 142.295 -83.2856 -144.264
lowerback 2.96608 -0.329066 5.58227
upperback 0.451218 -0.270248 0.0190447
thorax -1.22489 -0.163438 -3.10074
lowerneck -4.44046 0.972925 2.50582
upperneck 9.47164 0.938236 0.845485
head 3.88085 0.556857 -0.119087
rclavicle -7.59594e-015 8.15017e-015
rhumerus -34.9546 -7.05559 -86.5548
rradius 26.329
rwrist 4.17977
rhand -18.4525 -10.3575
rfingers 7.12502
rthumb 7.83358 -40.1924
lclavicle -7.59594e-015 8.15017e-015
lhumerus -34.3966 13.1198 78.7355
lradius 19.8411
lwrist 14.01
lhand -18.9812 12.7234
lfingers 7.12502
lthumb 7.32329 42.5767
rfemur 5.29111 6.85643 29.2091
rtibia 27.7436
rfoot 7.97611 -4.43322
rtoes -4.17827
lfemur -21.7851 5.88154 -15.0024
ltibia 19.3563
lfoot 27.7663 -0.984043
ltoes -2.77508
757
root 19.4953 17.5928 -5.79023 140.469 -83.3976 -142.472
lowerback 3.06943 -0.413626 5.66589
upperback 0.514988 -0.376203 0.0634464
thorax -1.22732 -0.215921 -3.09718
lowerneck -4.36846 0.964524 2.50762
upperneck 9.37875 0.932498 0.835047
head 3.83374 0.552872 -0.123679
rclavicle 9.43917e-015 -6.36111e-015
rhumerus -34.9512 -6.86276 -86.6086
rradius 26.439
rwrist 4.11612
rhand -18.4469 -10.3373
rfingers 7.12502
rthumb 7.83898 -40.172
lclavicle 9.43917e-015 -6.36111e-015
lhumerus -34.5133 12.9145 78.9014
lradius 19.9366
lwrist 14.1436
lhand -18.8596 12.6973
lfingers 7.12502
lthumb 7.44063 42.5464
rfemur 4.73569 6.54377 29.284
rtibia 27.9352
rfoot 7.67367 -4.1982
rtoes -4.36614
lfemur -22.031 6.00347 -14.9169
ltibia 19.352
lfoot 27.3026 -1.10663
ltoes -2.90608
758
root 19.6451 17.5951 -5.80192 138.503 -83.5222 -140.561
lowerback 3.15968 -0.504218 5.74383
upperback 0.583471 -0.491365 0.104841
thorax -1.2185 -0.272565 -3.09296
lowerneck -4.30484 0.952829 2.50671
upperneck 9.31375 0.920889 0.82947
head 3.79812 0.546206 -0.126337
rclavicle 6.84099e-015 0
rhumerus -34.9621 -6.7152 -86.6433
rradius 26.5427
rwrist 4.0612
rhand -18.4756 -10.328
rfingers 7.12502
rthumb 7.81136 -40.1637
lclavicle 6.84099e-015 0
lhumerus -34.6279 12.7416 79.0471
lradius 19.9875
lwrist 14.1809
lhand -18.736 12.6179
lfingers 7.12502
lthumb 7.55997 42.4628
rfemur 4.16332 6.2565 29.3567
rtibia 28.2104
rfoot 7.39543 -3.9403
rtoes -4.52172
lfemur -22.2174 6.19343 -14.8821
ltibia 19.5072
lfoot 26.4433 -1.34342
ltoes -3.16424
759
root 19.7921 17.5944 -5.81374 136.502 -83.6539 -138.645
lowerback 3.2521 -0.595237 5.8022
upperback 0.65913 -0.607876 0.141216
thorax -1.20357 -0.32949 -3.08268
lowerneck -4.25833 0.940086 2.5066
upperneck 9.27411 0.906147 0.828034
head 3.77484 0.538373 -0.127766
rclavicle 3.77225e-015 -1.0138e-014
rhumerus -34.9823 -6.62213 -86.6574
rradius 26.6332
rwrist 4.01727
rhand -18.5361 -10.3374
rfingers 7.12502
rthumb 7.75294 -40.1753
lclavicle 3.77225e-015 -1.0138e-014
lhumerus -34.7276 12.612 79.1673
lradius 19.9856
lwrist 14.1134
lhand -18.626 12.5235
lfingers 7.12502
lthumb 7.66611 42.3646
rfemur 3.57121 6.00187 29.427
rtibia 28.583
rfoot 7.12106 -3.69543
rtoes -4.64088
lfemur -22.3366 6.46121 -14.9021
ltibia 19.8046
lfoot 25.2643 -1.74626
ltoes -3.61003
760
root 19.9369 17.591 -5.82606 134.612 -83.7975 -136.874
lowerback 3.35986 -0.682429 5.82045
upperback 0.742125 -0.719932 0.16873
thorax -1.18893 -0.383907 -3.05891
lowerneck -4.23478 0.925999 2.50679
upperneck 9.26617 0.887365 0.832993
head 3.7672 0.529054 -0.127146
rclavicle 1.95197e-014 -2.98177e-015
rhumerus -35.0086 -6.59153 -86.6468
rradius 26.6991
rwrist 3.99098
rhand -18.6183 -10.3553
rfingers 7.12502
rthumb 7.67355 -40.1961
lclavicle 1.95197e-014 -2.98177e-015
lhumerus -34.8117 12.5313 79.2578
lradius 19.9361
lwrist 13.9403
lhand -18.5431 12.4708
lfingers 7.12502
lthumb 7.74614 42.3089
rfemur 2.96324 5.77263 29.4832
rtibia 29.0527
rfoot 6.8408 -3.4846
rtoes -4.74461
lfemur -22.3842 6.79226 -14.9796
ltibia 20.2347
lfoot 23.8422 -2.30045
ltoes -4.16416
761
root 20.0798 17.5857 -5.83908 132.943 -83.953 -135.355
lowerback 3.48915 -0.762868 5.78963
upperback 0.829045 -0.823473 0.185722
thorax -1.18092 -0.434034 -3.01843
lowerneck -4.22926 0.911497 2.50594
upperneck 9.2828 0.86649 0.841959
head 3.77173 0.519022 -0.124986
rclavicle -5.23829e-015 5.36719e-015
rhumerus -35.0411 -6.62596 -86.6085
rradius 26.7297
rwrist 3.99705
rhand -18.7076 -10.3681
rfingers 7.12502
rthumb 7.58739 -40.212
lclavicle -5.23829e-015 5.36719e-015
lhumerus -34.8785 12.5135 79.3104
lradius 19.8296
lwrist 13.6605
lhand -18.4924 12.4557
lfingers 7.12502
lthumb 7.79512 42.292
rfemur 2.35084 5.56628 29.5202
rtibia 29.597
rfoot 6.53835 -3.34535
rtoes -4.82684
lfemur -22.3708 7.15975 -15.1065
ltibia 20.8087
lfoot 22.2275 -2.97171
ltoes -4.8921
762
root 20.2209 17.5796 -5.85253 131.576 -84.1207 -134.163
lowerback 3.63983 -0.833301 5.71216
upperback 0.912905 -0.913949 0.19011
thorax -1.18617 -0.477939 -2.96489
lowerneck -4.23897 0.89748 2.50383
upperneck 9.3281 0.844595 0.855457
head 3.78934 0.508812 -0.121031
rclavicle -4.90439e-015 0
rhumerus -35.087 -6.72049 -86.5431
rradius 26.7235
rwrist 4.0333
rhand -18.7877 -10.3826
rfingers 7.12502
rthumb 7.51012 -40.2293
lclavicle -4.90439e-015 0
lhumerus -34.9361 12.5524 79.325
lradius 19.6732
lwrist 13.3001
lhand -18.4727 12.4839
lfingers 7.12502
lthumb 7.81407 42.3195
rfemur 1.74749 5.37395 29.5313
rtibia 30.1775
rfoot 6.21958 -3.28455
rtoes -4.93218
lfemur -22.3143 7.53225 -15.2717
ltibia 21.5491
lfoot 20.4653 -3.68175
ltoes -5.80476
763
root 20.36 17.5739 -5.86598 130.452 -84.2875 -133.228
lowerback 3.80379 -0.895779 5.60866
upperback 0.983679 -0.993628 0.186485
thorax -1.21082 -0.517152 -2.905
lowerneck -4.24251 0.884858 2.50361
upperneck 9.39825 0.823689 0.868187
head 3.81458 0.49913 -0.117587
rclavicle -1.68035e-014 1.47101e-014
rhumerus -35.1594 -6.85431 -86.4583
rradius 26.6809
rwrist 4.08884
rhand -18.8536 -10.3906
rfingers 7.12502
rthumb 7.44646 -40.2395
lclavicle -1.68035e-014 1.47101e-014
lhumerus -35.0126 12.6296 79.3046
lradius 19.4934
lwrist 12.8998
lhand -18.4699 12.5494
lfingers 7.12502
lthumb 7.81681 42.3849
rfemur 1.16795 5.19806 29.5312
rtibia 30.7478
rfoot 5.89577 -3.31249
rtoes -4.96306
lfemur -22.2373 7.87973 -15.4471
ltibia 22.4839
lfoot 18.6228 -4.34936
ltoes -6.99532
764
root 20.4966 17.57 -5.87872 129.538 -84.4466 -132.503
lowerback 3.96775 -0.949288 5.50164
upperback 1.03686 -1.06109 0.175508
thorax -1.25232 -0.550973 -2.85092
lowerneck -4.23931 0.872203 2.50108
upperneck 9.49502 0.801822 0.883052
head 3.84792 0.488978 -0.113044
rclavicle 2.07699e-014 -2.5842e-015
rhumerus -35.2583 -7.01987 -86.356
rradius 26.6011
rwrist 4.15902
rhand -18.8977 -10.3892
rfingers 7.12502
rthumb 7.40393 -40.2397
lclavicle 2.07699e-014 -2.5842e-015
lhumerus -35.11 12.745 79.2493
lradius 19.2893
lwrist 12.4806
lhand -18.4765 12.5954
lfingers 7.12502
lthumb 7.81048 42.4311
rfemur 0.624952 5.03778 29.5231
rtibia 31.2652
rfoot 5.58353 -3.4108
rtoes -4.92445
lfemur -22.1563 8.17806 -15.6144
ltibia 23.6311
lfoot 16.8004 -4.87729
ltoes -8.37335
765
root 20.6301 17.568 -5.89027 128.742 -84.5846 -131.885
lowerback 4.11376 -0.995101 5.41509
upperback 1.06956 -1.11804 0.162688
thorax -1.30414 -0.580143 -2.81062
lowerneck -4.22726 0.861185 2.49927
upperneck 9.6126 0.781678 0.895463
head 3.887 0.479562 -0.109347
rclavicle -5.22431e-015 1.39149e-015
rhumerus -35.3882 -7.20659 -86.2384
rradius 26.494
rwrist 4.24031
rhand -18.9229 -10.383
rfingers 7.12502
rthumb 7.37961 -40.2343
lclavicle -5.22431e-015 1.39149e-015
lhumerus -35.2436 12.8766 79.1715
lradius 19.0881
lwrist 12.0877
lhand -18.4829 12.6361
lfingers 7.12502
lthumb 7.80431 42.472
rfemur 0.125271 4.89712 29.5201
rtibia 31.6984
rfoot 5.29506 -3.56541
rtoes -4.775
lfemur -22.0867 8.42832 -15.7564
ltibia 24.9952
lfoot 15.0894 -5.2655
ltoes -9.99991
766
root 20.7602 17.5688 -5.90038 128.031 -84.7043 -131.334
lowerback 4.22369 -1.03497 5.35264
upperback 1.08446 -1.16775 0.148381
thorax -1.35383 -0.605893 -2.78597
lowerneck -4.20131 0.850269 2.49827
upperneck 9.74758 0.761536 0.903827
head 3.92962 0.469904 -0.10715
rclavicle 5.17927e-015 8.15017e-015
rhumerus -35.5427 -7.39356 -86.114
rradius 26.3637
rwrist 4.31132
rhand -18.9362 -10.3743
rfingers 7.12502
rthumb 7.3667 -40.226
lclavicle 5.17927e-015 8.15017e-015
lhumerus -35.4055 13.0396 79.065
lradius 18.8827
lwrist 11.7154
lhand -18.4792 12.6646
lfingers 7.12502
lthumb 7.80787 42.5004
rfemur -0.328063 4.77722 29.518
rtibia 32.0344
rfoot 5.05195 -3.73498
rtoes -4.5514
lfemur -22.0243 8.61767 -15.8666
ltibia 26.5588
lfoot 13.5752 -5.46271
ltoes -11.6242
767
root 20.8867 17.5714 -5.90917 127.327 -84.7946 -130.774
lowerback 4.28531 -1.06708 5.32715
upperback 1.09241 -1.20829 0.13696
thorax -1.38343 -0.626721 -2.78019
lowerneck -4.17765 0.839345 2.49132
upperneck 9.89423 0.740973 0.9152
head 3.97688 0.459965 -0.102896
rclavicle 5.50696e-015 2.5842e-015
rhumerus -35.7063 -7.58346 -85.9831
rradius 26.2179
rwrist 4.37891
rhand -18.9352 -10.364
rfingers 7.12502
rthumb 7.36774 -40.2157
lclavicle 5.50696e-015 2.5842e-015
lhumerus -35.5784 13.2201 78.9429
lradius 18.6798
lwrist 11.3878
lhand -18.4568 12.691
lfingers 7.12502
lthumb 7.8295 42.5261
rfemur -0.734386 4.68638 29.5304
rtibia 32.2754
rfoot 4.85157 -3.90707
rtoes -4.30553
lfemur -21.9641 8.76567 -15.9344
ltibia 28.2961
lfoot 12.2939 -5.49865
ltoes -13.191
768
root 21.0098 17.5753 -5.91669 126.654 -84.8668 -130.227
lowerback 4.29348 -1.09481 5.32498
upperback 1.09797 -1.24513 0.127302
thorax -1.38567 -0.645065 -2.78671
lowerneck -4.15719 0.830719 2.48404
upperneck 10.047 0.723309 0.924758
head 4.02712 0.451375 -0.0990245
rclavicle 5.65449e-015 -1.64991e-014
rhumerus -35.8673 -7.76578 -85.8508
rradius 26.0561
rwrist 4.43806
rhand -18.9211 -10.3517
rfingers 7.12502
rthumb 7.3813 -40.203
lclavicle 5.65449e-015 -1.64991e-014
lhumerus -35.762 13.403 78.8155
lradius 18.499
lwrist 11.1237
lhand -18.4121 12.7267
lfingers 7.12502
lthumb 7.87265 42.5601
rfemur -1.10316 4.61703 29.5434
rtibia 32.4369
rfoot 4.69968 -4.04984
rtoes -4.13527
lfemur -21.8948 8.87429 -15.9713
ltibia 30.1729
lfoot 11.2366 -5.38857
ltoes -14.6274
